<?xml version="1.0" encoding="UTF-8" standalone="no"?>
<!-- Created with Inkscape (http://www.inkscape.org/) -->

<svg
   width="88.763084mm"
   height="25.655767mm"
   viewBox="0 0 88.763084 25.655767"
   version="1.1"
   id="svg1"
   xmlns="http://www.w3.org/2000/svg"
   xmlns:svg="http://www.w3.org/2000/svg"
   xmlns:ns2="http://www.iki.fi/pav/software/textext/">
  <defs
     id="defs1">
    <marker
       style="overflow:visible"
       id="ArrowWideRounded"
       refX="0"
       refY="0"
       orient="auto-start-reverse"
       markerWidth="1"
       markerHeight="1"
       viewBox="0 0 1 1"
       preserveAspectRatio="xMidYMid">
      <path
         style="fill:none;stroke:context-stroke;stroke-width:1;stroke-linecap:round"
         d="M 3,-3 0,0 3,3"
         transform="rotate(180,0.125,0)"
         id="path71" />
    </marker>
  </defs>
  <g
     id="layer1"
     transform="translate(-51.762689,-224.45712)">
    <g
       id="g226"
       transform="matrix(0.20240054,0,0,0.17857131,159.96879,214.22332)"
       style="stroke-width:1.57801;stroke-dasharray:none">
      <path
         id="path226"
         style="fill:none;stroke:#4495d9;stroke-width:1.57801;stroke-linecap:square;stroke-dasharray:none;stroke-opacity:1"
         d="m -133.84339,88.004224 h -25.86213 V 58.098339 h -25.72984 v 29.905885 h -25.86213 V 58.098339 h -25.72984 v 29.905885 h -25.86213 V 58.098339 h -25.72984 v 29.905885 h -25.86213 V 58.098339 h -25.72984 V 88.004224 H -366.0734 V 58.098339 h -25.72984 v 29.905885 h -25.86213 V 58.098339 h -25.72984 v 29.905885 h -25.86213 V 58.098339 h -25.72984 v 29.905885" />
    </g>
    <g
       id="g228"
       transform="matrix(0.20240054,0,0,0.17857131,167.45606,222.16087)"
       style="stroke-width:1.57801;stroke-dasharray:none">
      <path
         id="path228"
         style="fill:none;stroke:#d99144;stroke-width:1.57801;stroke-linecap:square;stroke-dasharray:none;stroke-opacity:1"
         d="m -133.84339,88.004224 h -25.86213 V 58.098339 h -25.72984 v 29.905885 h -25.86213 V 58.098339 h -25.72984 v 29.905885 h -25.86213 V 58.098339 h -25.72984 v 29.905885 h -25.86213 V 58.098339 h -25.72984 V 88.004224 H -366.0734 V 58.098339 h -25.72984 v 29.905885 h -25.86213 V 58.098339 h -25.72984 v 29.905885 h -25.86213 V 58.098339 h -25.72984 v 29.905885" />
    </g>
    <path
       style="fill:#a5331e;fill-opacity:1;stroke:#000000;stroke-width:0.2;stroke-dasharray:0.4, 0.2;stroke-dashoffset:0;stroke-opacity:1"
       d="m 59.773425,231.7927 v 16.43149"
       id="path232" />
    <path
       style="fill:#a5331e;fill-opacity:1;stroke:#000000;stroke-width:0.2;stroke-dasharray:0.4, 0.2;stroke-dashoffset:0;stroke-opacity:1"
       d="m 67.260693,240.00846 v 8.21574"
       id="path233" />
    <path
       style="fill:#a5331e;fill-opacity:1;stroke:#000000;stroke-width:0.2;stroke-dasharray:none;stroke-dashoffset:0;stroke-opacity:1;marker-start:url(#ArrowWideRounded);marker-end:url(#ArrowWideRounded)"
       d="m 60.789396,247.6144 h 5.460606"
       id="path234" />
    <g
       id="g1">
      <g
         fill="#000000"
         fill-opacity="1"
         id="id-ce107345-9f6e-45b0-b0e5-d1b6b0b07da3"
         transform="matrix(0.352778,0,0,0.352778,-0.85403105,180.60524)"
         style="fill:#4495d9;fill-opacity:1">
        <g
           transform="translate(148.712,134.765)"
           id="g9303"
           style="fill:#4495d9;fill-opacity:1">
          <path
             d="m 3.65625,-3.984375 h 0.859375 c 0.203125,0 0.296875,0 0.296875,-0.203125 0,-0.109375 -0.09375,-0.109375 -0.265625,-0.109375 H 3.71875 L 3.921875,-5.4375 c 0.046875,-0.203125 0.1875,-0.90625 0.25,-1.03125 0.078125,-0.1875 0.25,-0.34375 0.46875,-0.34375 0.03125,0 0.296875,0 0.484375,0.1875 -0.4375,0.03125 -0.546875,0.390625 -0.546875,0.53125 0,0.234375 0.1875,0.359375 0.375,0.359375 C 5.21875,-5.734375 5.5,-5.96875 5.5,-6.34375 c 0,-0.453125 -0.453125,-0.6875 -0.859375,-0.6875 -0.34375,0 -0.96875,0.1875 -1.265625,1.171875 -0.0625,0.203125 -0.09375,0.3125 -0.328125,1.5625 h -0.6875 c -0.203125,0 -0.3125,0 -0.3125,0.1875 0,0.125 0.09375,0.125 0.28125,0.125 h 0.65625 L 2.25,-0.046875 c -0.1875,0.96875 -0.359375,1.875 -0.875,1.875 -0.046875,0 -0.28125,0 -0.484375,-0.1875 C 1.359375,1.609375 1.453125,1.25 1.453125,1.109375 1.453125,0.875 1.265625,0.75 1.078125,0.75 0.8125,0.75 0.53125,0.984375 0.53125,1.359375 c 0,0.4375 0.4375,0.6875 0.84375,0.6875 0.546875,0 0.953125,-0.59375 1.125,-0.96875 0.328125,-0.625 0.546875,-1.828125 0.5625,-1.90625 z m 0,0"
             id="id-76f9d786-be08-469f-a38b-effa5a9dff6b"
             style="fill:#4495d9;fill-opacity:1" />
        </g>
      </g>
      <g
         fill="#000000"
         fill-opacity="1"
         id="id-64354e78-9f9a-4dc5-adcc-78c3c6a6bf6f"
         transform="matrix(0.352778,0,0,0.352778,-0.85403105,180.60524)"
         style="fill:#4495d9;fill-opacity:1">
        <g
           transform="translate(153.59,136.259)"
           id="g3259"
           style="fill:#4495d9;fill-opacity:1">
          <path
             d="m 1.4375,-0.84375 c -0.25,0.390625 -0.46875,0.5625 -0.875,0.59375 -0.078125,0 -0.171875,0 -0.171875,0.140625 C 0.390625,-0.03125 0.453125,0 0.5,0 0.671875,0 0.90625,-0.03125 1.09375,-0.03125 1.3125,-0.03125 1.609375,0 1.8125,0 1.84375,0 1.953125,0 1.953125,-0.15625 1.953125,-0.25 1.859375,-0.25 1.828125,-0.25 1.78125,-0.265625 1.53125,-0.265625 1.53125,-0.453125 c 0,-0.09375 0.0625,-0.203125 0.09375,-0.265625 l 0.5625,-0.875 h 2 L 4.34375,-0.4375 C 4.328125,-0.359375 4.28125,-0.25 3.875,-0.25 c -0.09375,0 -0.1875,0 -0.1875,0.15625 C 3.6875,-0.0625 3.703125,0 3.796875,0 4,0 4.5,-0.03125 4.703125,-0.03125 c 0.125,0 0.28125,0.015625 0.40625,0.015625 C 5.234375,-0.015625 5.375,0 5.5,0 5.59375,0 5.640625,-0.0625 5.640625,-0.140625 5.640625,-0.25 5.5625,-0.25 5.453125,-0.25 c -0.40625,0 -0.421875,-0.0625 -0.4375,-0.21875 l -0.625,-4.3125 C 4.375,-4.921875 4.359375,-4.96875 4.234375,-4.96875 4.09375,-4.96875 4.0625,-4.90625 4,-4.8125 Z m 0.921875,-1 L 3.8125,-4.125 4.140625,-1.84375 Z m 0,0"
             id="id-84659305-22d3-45a6-aa19-a7460abac78d"
             style="fill:#4495d9;fill-opacity:1" />
        </g>
      </g>
    </g>
    <g
       id="g2">
      <g
         fill="#000000"
         fill-opacity="1"
         id="id-3b18bba8-79e8-42a9-9d3f-28c91a3a6819"
         transform="matrix(0.352778,0,0,0.352778,-0.88704705,188.54325)"
         style="fill:#d99144;fill-opacity:1">
        <g
           transform="translate(148.712,134.765)"
           id="g488"
           style="fill:#d99144;fill-opacity:1">
          <path
             d="m 3.65625,-3.984375 h 0.859375 c 0.203125,0 0.296875,0 0.296875,-0.203125 0,-0.109375 -0.09375,-0.109375 -0.265625,-0.109375 H 3.71875 L 3.921875,-5.4375 c 0.046875,-0.203125 0.1875,-0.90625 0.25,-1.03125 0.078125,-0.1875 0.25,-0.34375 0.46875,-0.34375 0.03125,0 0.296875,0 0.484375,0.1875 -0.4375,0.03125 -0.546875,0.390625 -0.546875,0.53125 0,0.234375 0.1875,0.359375 0.375,0.359375 C 5.21875,-5.734375 5.5,-5.96875 5.5,-6.34375 c 0,-0.453125 -0.453125,-0.6875 -0.859375,-0.6875 -0.34375,0 -0.96875,0.1875 -1.265625,1.171875 -0.0625,0.203125 -0.09375,0.3125 -0.328125,1.5625 h -0.6875 c -0.203125,0 -0.3125,0 -0.3125,0.1875 0,0.125 0.09375,0.125 0.28125,0.125 h 0.65625 L 2.25,-0.046875 c -0.1875,0.96875 -0.359375,1.875 -0.875,1.875 -0.046875,0 -0.28125,0 -0.484375,-0.1875 C 1.359375,1.609375 1.453125,1.25 1.453125,1.109375 1.453125,0.875 1.265625,0.75 1.078125,0.75 0.8125,0.75 0.53125,0.984375 0.53125,1.359375 c 0,0.4375 0.4375,0.6875 0.84375,0.6875 0.546875,0 0.953125,-0.59375 1.125,-0.96875 0.328125,-0.625 0.546875,-1.828125 0.5625,-1.90625 z m 0,0"
             id="id-1f037818-5104-49dc-8c39-f7174ad993f4"
             style="fill:#d99144;fill-opacity:1" />
        </g>
      </g>
      <g
         fill="#000000"
         fill-opacity="1"
         id="id-b18c5ffe-923d-4da3-b92d-2b4bd5027aff"
         transform="matrix(0.352778,0,0,0.352778,-0.88704705,188.54325)"
         style="fill:#d99144;fill-opacity:1">
        <g
           transform="translate(153.59,136.259)"
           id="g7663"
           style="fill:#d99144;fill-opacity:1">
          <path
             d="M 1.328125,-0.546875 C 1.265625,-0.3125 1.25,-0.25 0.703125,-0.25 0.59375,-0.25 0.5,-0.25 0.5,-0.109375 0.5,0 0.578125,0 0.703125,0 H 3.40625 c 1.171875,0 2.078125,-0.796875 2.078125,-1.484375 0,-0.5 -0.453125,-0.921875 -1.203125,-1 0.84375,-0.15625 1.546875,-0.6875 1.546875,-1.28125 0,-0.53125 -0.53125,-1 -1.4375,-1 h -2.53125 c -0.140625,0 -0.234375,0 -0.234375,0.15625 0,0.09375 0.09375,0.09375 0.234375,0.09375 0,0 0.140625,0 0.265625,0.015625 0.140625,0.015625 0.15625,0.03125 0.15625,0.109375 0,0 0,0.046875 -0.03125,0.140625 z m 1.109375,-2.03125 0.421875,-1.6875 c 0.0625,-0.21875 0.0625,-0.25 0.359375,-0.25 h 1.0625 c 0.703125,0 0.875,0.46875 0.875,0.734375 0,0.5625 -0.640625,1.203125 -1.578125,1.203125 z M 2.109375,-0.25 C 1.890625,-0.25 1.875,-0.265625 1.875,-0.328125 c 0,0 0,-0.03125 0.03125,-0.140625 L 2.390625,-2.375 H 3.875 c 0.640625,0 0.90625,0.4375 0.90625,0.828125 0,0.703125 -0.71875,1.296875 -1.5625,1.296875 z m 0,0"
             id="id-e18f7eae-f2c9-4311-b198-6edf6a106974"
             style="fill:#d99144;fill-opacity:1" />
        </g>
      </g>
    </g>
    <path
       style="fill:#a5331e;fill-opacity:1;stroke:#000000;stroke-width:0.2;stroke-dasharray:0.4, 0.2;stroke-dashoffset:0;stroke-opacity:1"
       d="m 70.284738,240.00846 v 8.21574"
       id="path10" />
    <path
       style="fill:#a5331e;fill-opacity:1;stroke:#000000;stroke-width:0.2;stroke-dasharray:0.4, 0.2;stroke-dashoffset:0;stroke-opacity:1"
       d="m 77.677982,240.00846 v 8.21574"
       id="path29" />
    <path
       style="fill:#a5331e;fill-opacity:1;stroke:#000000;stroke-width:0.2;stroke-dasharray:none;stroke-dashoffset:0;stroke-opacity:1;marker-start:url(#ArrowWideRounded);marker-end:url(#ArrowWideRounded)"
       d="m 71.206685,247.6144 h 5.460606"
       id="path30" />
    <path
       style="fill:#a5331e;fill-opacity:1;stroke:#000000;stroke-width:0.2;stroke-dasharray:0.4, 0.2;stroke-dashoffset:0;stroke-opacity:1"
       d="m 80.55381,240.00846 v 8.21574"
       id="path125" />
    <path
       style="fill:#a5331e;fill-opacity:1;stroke:#000000;stroke-width:0.2;stroke-dasharray:0.4, 0.2;stroke-dashoffset:0;stroke-opacity:1"
       d="m 87.947054,240.00846 v 8.21574"
       id="path126" />
    <path
       style="fill:#a5331e;fill-opacity:1;stroke:#000000;stroke-width:0.2;stroke-dasharray:none;stroke-dashoffset:0;stroke-opacity:1;marker-start:url(#ArrowWideRounded);marker-end:url(#ArrowWideRounded)"
       d="m 81.475757,247.6144 h 5.460606"
       id="path127" />
    <path
       style="fill:#a5331e;fill-opacity:1;stroke:#000000;stroke-width:0.2;stroke-dasharray:0.4, 0.2;stroke-dashoffset:0;stroke-opacity:1"
       d="m 91.189634,240.00846 v 8.21574"
       id="path136" />
    <path
       style="fill:#a5331e;fill-opacity:1;stroke:#000000;stroke-width:0.2;stroke-dasharray:0.4, 0.2;stroke-dashoffset:0;stroke-opacity:1"
       d="m 98.582878,240.00846 v 8.21574"
       id="path137" />
    <path
       style="fill:#a5331e;fill-opacity:1;stroke:#000000;stroke-width:0.2;stroke-dasharray:none;stroke-dashoffset:0;stroke-opacity:1;marker-start:url(#ArrowWideRounded);marker-end:url(#ArrowWideRounded)"
       d="m 92.111581,247.6144 h 5.460606"
       id="path138" />
    <text
       xml:space="preserve"
       style="font-size:3.75224px;font-family:'CMU B';-inkscape-font-specification:'CMU B';text-align:center;text-anchor:middle;fill:#020100;fill-opacity:1;stroke:none;stroke-width:0.2"
       x="114.56618"
       y="220.8575"
       id="text147"
       transform="scale(0.89187584,1.1212323)"><tspan
         id="tspan147"
         style="fill:#020100;fill-opacity:1;stroke:none;stroke-width:0.2"
         x="114.56618"
         y="220.8575">...</tspan></text>
    <g
       transform="matrix(0.224472,0,0,0.224472,61.8666,248.159)"
       ns2:version="1.10.2"
       ns2:texconverter="pdflatex"
       ns2:pdfconverter="inkscape"
       ns2:text="$\\Delta t_1$"
       ns2:preamble="/Users/ben/Library/Application Support/org.inkscape.Inkscape/config/inkscape/extensions/textext/default_packages.tex"
       ns2:scale="0.6362979550879023"
       ns2:alignment="middle center"
       ns2:stroke-to-path="0"
       ns2:inkscapeversion="1.3.2"
       id="g1896"
       ns2:jacobian_sqrt="0.224472"
       style="stroke-width:0">
      <defs
         id="id-0fca6399-7ad9-479f-b9cc-b0aa0034d83a"
         style="stroke-width:0" />
      <g
         fill="#000000"
         fill-opacity="1"
         id="id-64346e39-5d69-4e37-a948-f4a887e4ea57"
         transform="translate(-149.181,-127.624)"
         style="stroke-width:0">
        <g
           transform="translate(148.712,134.765)"
           id="g5485"
           style="stroke-width:0">
          <path
             d="m 4.40625,-6.953125 c -0.0625,-0.140625 -0.09375,-0.1875 -0.265625,-0.1875 -0.15625,0 -0.1875,0.046875 -0.25,0.1875 l -3.375,6.75 C 0.46875,-0.109375 0.46875,-0.09375 0.46875,-0.078125 0.46875,0 0.53125,0 0.6875,0 h 6.921875 c 0.15625,0 0.21875,0 0.21875,-0.078125 0,-0.015625 0,-0.03125 -0.046875,-0.125 z m -0.578125,0.8125 2.6875,5.390625 h -5.375 z m 0,0"
             id="id-77600afa-565e-44fd-b75d-6e0b82340562"
             style="stroke-width:0" />
        </g>
      </g>
      <g
         fill="#000000"
         fill-opacity="1"
         id="id-6589e77f-4eb8-4d28-bfee-93efbd784aaa"
         transform="translate(-149.181,-127.624)"
         style="stroke-width:0">
        <g
           transform="translate(157.015,134.765)"
           id="g5578"
           style="stroke-width:0">
          <path
             d="m 2.046875,-3.984375 h 0.9375 c 0.203125,0 0.3125,0 0.3125,-0.203125 0,-0.109375 -0.109375,-0.109375 -0.28125,-0.109375 h -0.875 C 2.5,-5.71875 2.546875,-5.90625 2.546875,-5.96875 c 0,-0.171875 -0.125,-0.265625 -0.296875,-0.265625 -0.03125,0 -0.3125,0 -0.390625,0.359375 L 1.46875,-4.296875 h -0.9375 c -0.203125,0 -0.296875,0 -0.296875,0.1875 0,0.125 0.078125,0.125 0.28125,0.125 h 0.875 C 0.671875,-1.15625 0.625,-0.984375 0.625,-0.8125 0.625,-0.265625 1,0.109375 1.546875,0.109375 2.5625,0.109375 3.125,-1.34375 3.125,-1.421875 3.125,-1.53125 3.046875,-1.53125 3.015625,-1.53125 2.921875,-1.53125 2.90625,-1.5 2.859375,-1.390625 2.4375,-0.34375 1.90625,-0.109375 1.5625,-0.109375 c -0.203125,0 -0.3125,-0.125 -0.3125,-0.453125 0,-0.25 0.03125,-0.3125 0.0625,-0.484375 z m 0,0"
             id="id-42b9731d-2430-492e-8e95-61e9ef3749a5"
             style="stroke-width:0" />
        </g>
      </g>
      <g
         fill="#000000"
         fill-opacity="1"
         id="id-06771d20-1acf-4341-9ad5-ce0da1a4e526"
         transform="translate(-149.181,-127.624)"
         style="stroke-width:0">
        <g
           transform="translate(160.612,136.259)"
           id="g781"
           style="stroke-width:0">
          <path
             d="m 2.328125,-4.4375 c 0,-0.1875 0,-0.1875 -0.203125,-0.1875 -0.453125,0.4375 -1.078125,0.4375 -1.359375,0.4375 v 0.25 c 0.15625,0 0.625,0 1,-0.1875 v 3.546875 c 0,0.234375 0,0.328125 -0.6875,0.328125 H 0.8125 V 0 c 0.125,0 0.984375,-0.03125 1.234375,-0.03125 0.21875,0 1.09375,0.03125 1.25,0.03125 V -0.25 H 3.03125 c -0.703125,0 -0.703125,-0.09375 -0.703125,-0.328125 z m 0,0"
             id="id-069f8eb2-a9d8-481f-beff-c7246b73d014"
             style="stroke-width:0" />
        </g>
      </g>
    </g>
    <g
       transform="matrix(0.224472,0,0,0.224472,72.2594,248.159)"
       ns2:version="1.10.2"
       ns2:texconverter="pdflatex"
       ns2:pdfconverter="inkscape"
       ns2:text="$\\Delta t_2$"
       ns2:preamble="/Users/ben/Library/Application Support/org.inkscape.Inkscape/config/inkscape/extensions/textext/default_packages.tex"
       ns2:scale="0.6362979550879023"
       ns2:alignment="middle center"
       ns2:stroke-to-path="0"
       ns2:inkscapeversion="1.3.2"
       id="g38"
       ns2:jacobian_sqrt="0.224472"
       style="stroke-width:0">
      <defs
         id="id-5eb48588-79cb-40ae-b6d0-ba06844fa425"
         style="stroke-width:0" />
      <g
         fill="#000000"
         fill-opacity="1"
         id="id-babc1f4f-d296-4498-8479-7f2d4740f858"
         transform="translate(-149.181,-127.624)"
         style="stroke-width:0">
        <g
           transform="translate(148.712,134.765)"
           id="g5840"
           style="stroke-width:0">
          <path
             d="m 4.40625,-6.953125 c -0.0625,-0.140625 -0.09375,-0.1875 -0.265625,-0.1875 -0.15625,0 -0.1875,0.046875 -0.25,0.1875 l -3.375,6.75 C 0.46875,-0.109375 0.46875,-0.09375 0.46875,-0.078125 0.46875,0 0.53125,0 0.6875,0 h 6.921875 c 0.15625,0 0.21875,0 0.21875,-0.078125 0,-0.015625 0,-0.03125 -0.046875,-0.125 z m -0.578125,0.8125 2.6875,5.390625 h -5.375 z m 0,0"
             id="id-9d975667-d4f4-44ed-bef2-4738752b13d0"
             style="stroke-width:0" />
        </g>
      </g>
      <g
         fill="#000000"
         fill-opacity="1"
         id="id-7b9f6b17-39c5-4322-9bfb-17dda0b534b9"
         transform="translate(-149.181,-127.624)"
         style="stroke-width:0">
        <g
           transform="translate(157.015,134.765)"
           id="g5477"
           style="stroke-width:0">
          <path
             d="m 2.046875,-3.984375 h 0.9375 c 0.203125,0 0.3125,0 0.3125,-0.203125 0,-0.109375 -0.109375,-0.109375 -0.28125,-0.109375 h -0.875 C 2.5,-5.71875 2.546875,-5.90625 2.546875,-5.96875 c 0,-0.171875 -0.125,-0.265625 -0.296875,-0.265625 -0.03125,0 -0.3125,0 -0.390625,0.359375 L 1.46875,-4.296875 h -0.9375 c -0.203125,0 -0.296875,0 -0.296875,0.1875 0,0.125 0.078125,0.125 0.28125,0.125 h 0.875 C 0.671875,-1.15625 0.625,-0.984375 0.625,-0.8125 0.625,-0.265625 1,0.109375 1.546875,0.109375 2.5625,0.109375 3.125,-1.34375 3.125,-1.421875 3.125,-1.53125 3.046875,-1.53125 3.015625,-1.53125 2.921875,-1.53125 2.90625,-1.5 2.859375,-1.390625 2.4375,-0.34375 1.90625,-0.109375 1.5625,-0.109375 c -0.203125,0 -0.3125,-0.125 -0.3125,-0.453125 0,-0.25 0.03125,-0.3125 0.0625,-0.484375 z m 0,0"
             id="id-b738800c-c0ae-42fa-9f9d-6258d818afde"
             style="stroke-width:0" />
        </g>
      </g>
      <g
         fill="#000000"
         fill-opacity="1"
         id="id-8d7a78ff-2085-47c8-b805-357efe05629d"
         transform="translate(-149.181,-127.624)"
         style="stroke-width:0">
        <g
           transform="translate(160.612,136.259)"
           id="g9661"
           style="stroke-width:0">
          <path
             d="M 3.515625,-1.265625 H 3.28125 c -0.015625,0.15625 -0.09375,0.5625 -0.1875,0.625 C 3.046875,-0.59375 2.515625,-0.59375 2.40625,-0.59375 H 1.125 c 0.734375,-0.640625 0.984375,-0.84375 1.390625,-1.171875 0.515625,-0.40625 1,-0.84375 1,-1.5 0,-0.84375 -0.734375,-1.359375 -1.625,-1.359375 -0.859375,0 -1.453125,0.609375 -1.453125,1.25 0,0.34375 0.296875,0.390625 0.375,0.390625 0.15625,0 0.359375,-0.125 0.359375,-0.375 0,-0.125 -0.046875,-0.375 -0.40625,-0.375 C 0.984375,-4.21875 1.453125,-4.375 1.78125,-4.375 c 0.703125,0 1.0625,0.546875 1.0625,1.109375 0,0.609375 -0.4375,1.078125 -0.65625,1.328125 L 0.515625,-0.265625 C 0.4375,-0.203125 0.4375,-0.1875 0.4375,0 h 2.875 z m 0,0"
             id="id-ba223a09-a596-46ab-b7b4-e8f13269cdf5"
             style="stroke-width:0" />
        </g>
      </g>
    </g>
    <g
       transform="matrix(0.224472,0,0,0.224472,82.5215,248.143)"
       ns2:version="1.10.2"
       ns2:texconverter="pdflatex"
       ns2:pdfconverter="inkscape"
       ns2:text="$\\Delta t_3$"
       ns2:preamble="/Users/ben/Library/Application Support/org.inkscape.Inkscape/config/inkscape/extensions/textext/default_packages.tex"
       ns2:scale="0.6362979550879023"
       ns2:alignment="middle center"
       ns2:stroke-to-path="0"
       ns2:inkscapeversion="1.3.2"
       id="g135"
       ns2:jacobian_sqrt="0.224472"
       style="stroke-width:0">
      <defs
         id="id-8e695543-8f83-46db-9bf8-5cea277e71c9"
         style="stroke-width:0" />
      <g
         fill="#000000"
         fill-opacity="1"
         id="id-b58751eb-b326-49dc-bf8c-89d3ebb794d2"
         transform="translate(-149.181,-127.624)"
         style="stroke-width:0">
        <g
           transform="translate(148.712,134.765)"
           id="g2036"
           style="stroke-width:0">
          <path
             d="m 4.40625,-6.953125 c -0.0625,-0.140625 -0.09375,-0.1875 -0.265625,-0.1875 -0.15625,0 -0.1875,0.046875 -0.25,0.1875 l -3.375,6.75 C 0.46875,-0.109375 0.46875,-0.09375 0.46875,-0.078125 0.46875,0 0.53125,0 0.6875,0 h 6.921875 c 0.15625,0 0.21875,0 0.21875,-0.078125 0,-0.015625 0,-0.03125 -0.046875,-0.125 z m -0.578125,0.8125 2.6875,5.390625 h -5.375 z m 0,0"
             id="id-86a1bdac-ad0e-4d06-b9dc-7a2cc7cabcb2"
             style="stroke-width:0" />
        </g>
      </g>
      <g
         fill="#000000"
         fill-opacity="1"
         id="id-40df6d20-fcc6-480c-8cd6-5e3c3fe68775"
         transform="translate(-149.181,-127.624)"
         style="stroke-width:0">
        <g
           transform="translate(157.015,134.765)"
           id="g1419"
           style="stroke-width:0">
          <path
             d="m 2.046875,-3.984375 h 0.9375 c 0.203125,0 0.3125,0 0.3125,-0.203125 0,-0.109375 -0.109375,-0.109375 -0.28125,-0.109375 h -0.875 C 2.5,-5.71875 2.546875,-5.90625 2.546875,-5.96875 c 0,-0.171875 -0.125,-0.265625 -0.296875,-0.265625 -0.03125,0 -0.3125,0 -0.390625,0.359375 L 1.46875,-4.296875 h -0.9375 c -0.203125,0 -0.296875,0 -0.296875,0.1875 0,0.125 0.078125,0.125 0.28125,0.125 h 0.875 C 0.671875,-1.15625 0.625,-0.984375 0.625,-0.8125 0.625,-0.265625 1,0.109375 1.546875,0.109375 2.5625,0.109375 3.125,-1.34375 3.125,-1.421875 3.125,-1.53125 3.046875,-1.53125 3.015625,-1.53125 2.921875,-1.53125 2.90625,-1.5 2.859375,-1.390625 2.4375,-0.34375 1.90625,-0.109375 1.5625,-0.109375 c -0.203125,0 -0.3125,-0.125 -0.3125,-0.453125 0,-0.25 0.03125,-0.3125 0.0625,-0.484375 z m 0,0"
             id="id-e355e524-d6d3-4798-be8f-45647fb6c7bc"
             style="stroke-width:0" />
        </g>
      </g>
      <g
         fill="#000000"
         fill-opacity="1"
         id="id-b77a5b80-05c2-4f45-ba2d-276ab4f2c0ac"
         transform="translate(-149.181,-127.624)"
         style="stroke-width:0">
        <g
           transform="translate(160.612,136.259)"
           id="g3095"
           style="stroke-width:0">
          <path
             d="m 1.90625,-2.328125 c 0.546875,0 0.9375,0.375 0.9375,1.125 0,0.859375 -0.515625,1.125 -0.90625,1.125 -0.28125,0 -0.90625,-0.078125 -1.1875,-0.5 0.328125,0 0.40625,-0.234375 0.40625,-0.390625 0,-0.21875 -0.171875,-0.375 -0.390625,-0.375 -0.1875,0 -0.390625,0.125 -0.390625,0.40625 0,0.65625 0.71875,1.078125 1.5625,1.078125 0.96875,0 1.640625,-0.65625 1.640625,-1.34375 0,-0.546875 -0.4375,-1.09375 -1.203125,-1.25 0.71875,-0.265625 0.984375,-0.78125 0.984375,-1.21875 0,-0.546875 -0.625,-0.953125 -1.40625,-0.953125 -0.765625,0 -1.359375,0.375 -1.359375,0.9375 0,0.234375 0.15625,0.359375 0.359375,0.359375 0.21875,0 0.359375,-0.15625 0.359375,-0.34375 0,-0.203125 -0.140625,-0.359375 -0.359375,-0.375 0.25,-0.296875 0.71875,-0.375 0.984375,-0.375 0.3125,0 0.75,0.15625 0.75,0.75 0,0.296875 -0.09375,0.625 -0.28125,0.828125 -0.21875,0.265625 -0.421875,0.28125 -0.765625,0.3125 -0.171875,0.015625 -0.1875,0.015625 -0.21875,0.015625 -0.015625,0 -0.078125,0.015625 -0.078125,0.09375 0,0.09375 0.0625,0.09375 0.1875,0.09375 z m 0,0"
             id="id-cdc6eb21-097f-462c-90d8-ea95b43a7008"
             style="stroke-width:0" />
        </g>
      </g>
    </g>
    <g
       transform="matrix(0.224472,0,0,0.224472,93.145,248.159)"
       ns2:version="1.10.2"
       ns2:texconverter="pdflatex"
       ns2:pdfconverter="inkscape"
       ns2:text="$\\Delta t_4$"
       ns2:preamble="/Users/ben/Library/Application Support/org.inkscape.Inkscape/config/inkscape/extensions/textext/default_packages.tex"
       ns2:scale="0.6362979550879023"
       ns2:alignment="middle center"
       ns2:stroke-to-path="0"
       ns2:inkscapeversion="1.3.2"
       id="g146"
       ns2:jacobian_sqrt="0.224472"
       style="stroke-width:0">
      <defs
         id="id-8ecf695c-4227-4fb0-914f-324d0b434de8"
         style="stroke-width:0" />
      <g
         fill="#000000"
         fill-opacity="1"
         id="id-8eed7e8d-d1dd-4706-b4ca-17ee5aabf5d1"
         transform="translate(-149.181,-127.624)"
         style="stroke-width:0">
        <g
           transform="translate(148.712,134.765)"
           id="g5468"
           style="stroke-width:0">
          <path
             d="m 4.40625,-6.953125 c -0.0625,-0.140625 -0.09375,-0.1875 -0.265625,-0.1875 -0.15625,0 -0.1875,0.046875 -0.25,0.1875 l -3.375,6.75 C 0.46875,-0.109375 0.46875,-0.09375 0.46875,-0.078125 0.46875,0 0.53125,0 0.6875,0 h 6.921875 c 0.15625,0 0.21875,0 0.21875,-0.078125 0,-0.015625 0,-0.03125 -0.046875,-0.125 z m -0.578125,0.8125 2.6875,5.390625 h -5.375 z m 0,0"
             id="id-7a1a557a-d377-4786-a56f-223398b5060b"
             style="stroke-width:0" />
        </g>
      </g>
      <g
         fill="#000000"
         fill-opacity="1"
         id="id-d056bff3-0067-4985-8671-02ae6edac1f1"
         transform="translate(-149.181,-127.624)"
         style="stroke-width:0">
        <g
           transform="translate(157.015,134.765)"
           id="g5696"
           style="stroke-width:0">
          <path
             d="m 2.046875,-3.984375 h 0.9375 c 0.203125,0 0.3125,0 0.3125,-0.203125 0,-0.109375 -0.109375,-0.109375 -0.28125,-0.109375 h -0.875 C 2.5,-5.71875 2.546875,-5.90625 2.546875,-5.96875 c 0,-0.171875 -0.125,-0.265625 -0.296875,-0.265625 -0.03125,0 -0.3125,0 -0.390625,0.359375 L 1.46875,-4.296875 h -0.9375 c -0.203125,0 -0.296875,0 -0.296875,0.1875 0,0.125 0.078125,0.125 0.28125,0.125 h 0.875 C 0.671875,-1.15625 0.625,-0.984375 0.625,-0.8125 0.625,-0.265625 1,0.109375 1.546875,0.109375 2.5625,0.109375 3.125,-1.34375 3.125,-1.421875 3.125,-1.53125 3.046875,-1.53125 3.015625,-1.53125 2.921875,-1.53125 2.90625,-1.5 2.859375,-1.390625 2.4375,-0.34375 1.90625,-0.109375 1.5625,-0.109375 c -0.203125,0 -0.3125,-0.125 -0.3125,-0.453125 0,-0.25 0.03125,-0.3125 0.0625,-0.484375 z m 0,0"
             id="id-6fb8b7e1-358a-42ec-bb15-6ed9dcfab94a"
             style="stroke-width:0" />
        </g>
      </g>
      <g
         fill="#000000"
         fill-opacity="1"
         id="id-7b08fba8-d0e0-4d9b-849a-b2c391c97bda"
         transform="translate(-149.181,-127.624)"
         style="stroke-width:0">
        <g
           transform="translate(160.612,136.259)"
           id="g3858"
           style="stroke-width:0">
          <path
             d="m 3.6875,-1.140625 v -0.25 H 2.90625 V -4.5 c 0,-0.140625 0,-0.203125 -0.140625,-0.203125 -0.09375,0 -0.125,0 -0.1875,0.109375 l -2.3125,3.203125 v 0.25 h 2.0625 v 0.5625 c 0,0.25 0,0.328125 -0.578125,0.328125 H 1.5625 V 0 C 1.921875,-0.015625 2.359375,-0.03125 2.609375,-0.03125 2.875,-0.03125 3.3125,-0.015625 3.671875,0 v -0.25 h -0.1875 C 2.90625,-0.25 2.90625,-0.328125 2.90625,-0.578125 v -0.5625 z M 2.375,-3.9375 v 2.546875 H 0.53125 Z m 0,0"
             id="id-04344070-602c-4f6a-ac48-4bce541addf5"
             style="stroke-width:0" />
        </g>
      </g>
    </g>
  </g>
</svg>
